<?xml version="1.0" encoding="utf-8"?>
<!-- Generator: Adobe Illustrator 16.0.0, SVG Export Plug-In . SVG Version: 6.00 Build 0)  -->
<!DOCTYPE svg PUBLIC "-//W3C//DTD SVG 1.1//EN" "http://www.w3.org/Graphics/SVG/1.1/DTD/svg11.dtd">
<svg version="1.1" xmlns="http://www.w3.org/2000/svg" xmlns:xlink="http://www.w3.org/1999/xlink" x="0px" y="0px" width="400px"
	 height="400px" viewBox="0 0 400 400" enable-background="new 0 0 400 400" xml:space="preserve">
<g id="Layer_1">
	
		<polygon fill="#231F20" stroke="#231F20" stroke-width="15" stroke-linecap="round" stroke-linejoin="round" stroke-miterlimit="10" points="
		365.293,295.432 200,390.863 34.707,295.432 34.708,104.568 200,9.137 365.293,104.569 	"/>
</g>
<g id="cloud">
	<path fill="#F2EBED" d="M172.5,281.5h-63c0,0-43.5-7-42.5-49.5s36.5-45,36.5-45s-8.5-28,13-42.5s48,0,48,0s22.5-59,87-40
		s45,66,45,66s45,14,38,58.5S287,281.5,287,281.5H172.5z"/>
</g>
<g id="Layer_4">
	<polygon fill="#231F20" points="200,198.694 247.671,250.567 218.706,250.567 218.97,315.344 181.579,315.344 181.579,250.305 
		153.14,250.305 	"/>
</g>
</svg>
