<?xml version="1.0" encoding="utf-8"?>
<!-- Generator: Adobe Illustrator 16.0.0, SVG Export Plug-In . SVG Version: 6.00 Build 0)  -->
<!DOCTYPE svg PUBLIC "-//W3C//DTD SVG 1.1//EN" "http://www.w3.org/Graphics/SVG/1.1/DTD/svg11.dtd">
<svg version="1.1" id="Layer_1" xmlns="http://www.w3.org/2000/svg" xmlns:xlink="http://www.w3.org/1999/xlink" x="0px" y="0px"
	 width="24px" height="24px" viewBox="0 0 24 24" enable-background="new 0 0 24 24" xml:space="preserve">
<g>
	<g>
		<path fill="#999999" d="M12,4.563C4.063,4.563-0.012,12-0.012,12S3.063,19.438,12,19.438c8.093,0,12.012-7.409,12.012-7.409
			S20.063,4.563,12,4.563z M12.018,16.648c-2.902,0-5-2.033-5-4.648s2.098-4.648,5-4.648s5,2.033,5,4.648
			S14.92,16.648,12.018,16.648z M12.018,9.211c-1.658,0.003-3,1.295-3,2.789c0,1.492,1.342,2.789,3,2.789c1.658,0,3-1.297,3-2.789
			C15.018,10.505,13.676,9.208,12.018,9.211z"/>
	</g>
</g>
</svg>
